<?xml version="1.0" encoding="utf-8"?>
<!-- Generator: Adobe Illustrator 17.1.0, SVG Export Plug-In . SVG Version: 6.00 Build 0)  -->
<!DOCTYPE svg PUBLIC "-//W3C//DTD SVG 1.1//EN" "http://www.w3.org/Graphics/SVG/1.1/DTD/svg11.dtd">
<svg version="1.1" xmlns="http://www.w3.org/2000/svg" xmlns:xlink="http://www.w3.org/1999/xlink" x="0px" y="0px"
	 viewBox="0 0 332.454 410.278" enable-background="new 0 0 332.454 410.278" xml:space="preserve">
<g id="BG">
</g>
<g id="Layer_1">
	<g>
		<path fill="none" stroke="#87714F" stroke-miterlimit="10" d="M313.018,369.14V62.473c-10.493,0-19-8.507-19-19
			c0-0.113,0.015-0.221,0.017-0.333H56.667c0.002,0.112,0.017,0.221,0.017,0.333c0,10.381-8.329,18.803-18.667,18.983v306.7
			c10.338,0.18,18.667,8.602,18.667,18.983h237.333C294.018,377.646,302.524,369.14,313.018,369.14z"/>
		<g>
			<path fill="#87714F" d="M45.448,48.016c2.437,2.437,2.099,3.242,1.393,3.948s-1.511,1.043-3.948-1.393s-4.876-7.431-4.876-7.431
				S43.012,45.58,45.448,48.016z"/>
			<g>
				<circle fill="#87714F" cx="41.994" cy="53.212" r="1.724"/>
				<circle fill="#87714F" cx="48.09" cy="47.117" r="1.724"/>
			</g>
		</g>
		<g>
			<path fill="#87714F" d="M305.587,48.016c-2.437,2.437-2.099,3.242-1.393,3.948c0.705,0.705,1.511,1.043,3.948-1.393
				s4.876-7.431,4.876-7.431S308.023,45.58,305.587,48.016z"/>
			<g>
				<circle fill="#87714F" cx="309.041" cy="53.212" r="1.724"/>
				<circle fill="#87714F" cx="302.945" cy="47.117" r="1.724"/>
			</g>
		</g>
		<g>
			<path fill="#87714F" d="M305.587,383.263c-2.437-2.437-2.099-3.242-1.393-3.948c0.705-0.705,1.511-1.043,3.948,1.393
				s4.876,7.431,4.876,7.431S308.023,385.7,305.587,383.263z"/>
			<g>
				<circle fill="#87714F" cx="309.041" cy="378.068" r="1.724"/>
				<circle fill="#87714F" cx="302.945" cy="384.163" r="1.724"/>
			</g>
		</g>
		<g>
			<path fill="#87714F" d="M45.448,383.263c2.437-2.437,2.099-3.242,1.393-3.948c-0.705-0.705-1.511-1.043-3.948,1.393
				s-4.876,7.431-4.876,7.431S43.012,385.7,45.448,383.263z"/>
			<g>
				<circle fill="#87714F" cx="41.994" cy="378.068" r="1.724"/>
				<circle fill="#87714F" cx="48.09" cy="384.163" r="1.724"/>
			</g>
		</g>
	</g>
</g>
</svg>
