<?xml version="1.0" encoding="utf-8"?>
<!-- Generator: Adobe Illustrator 17.1.0, SVG Export Plug-In . SVG Version: 6.00 Build 0)  -->
<!DOCTYPE svg PUBLIC "-//W3C//DTD SVG 1.1//EN" "http://www.w3.org/Graphics/SVG/1.1/DTD/svg11.dtd">
<svg version="1.1" xmlns="http://www.w3.org/2000/svg" xmlns:xlink="http://www.w3.org/1999/xlink" x="0px" y="0px"
	 viewBox="0 0 327.033 405" enable-background="new 0 0 327.033 405" xml:space="preserve">
<g id="BG">
</g>
<g id="Layer_1">
	<g>
		<path fill="none" stroke="#87714F" stroke-miterlimit="10" d="M299.949,355.532V48.865c-10.493,0-19-8.507-19-19
			c0-0.113,0.015-0.221,0.017-0.333H43.599c0.002,0.112,0.017,0.221,0.017,0.333c0,10.381-8.329,18.803-18.667,18.983v306.7
			c10.338,0.18,18.667,8.602,18.667,18.983h237.333C280.949,364.038,289.456,355.532,299.949,355.532z"/>
		<g>
			<path fill="#87714F" d="M32.38,34.408c2.437,2.437,2.099,3.242,1.393,3.948c-0.705,0.705-1.511,1.043-3.948-1.393
				c-2.437-2.437-4.876-7.431-4.876-7.431S29.943,31.972,32.38,34.408z"/>
			<g>
				<circle fill="#87714F" cx="28.926" cy="39.604" r="1.724"/>
				<circle fill="#87714F" cx="35.022" cy="33.508" r="1.724"/>
			</g>
		</g>
		<g>
			<path fill="#87714F" d="M292.518,34.408c-2.437,2.437-2.099,3.242-1.393,3.948c0.705,0.705,1.511,1.043,3.948-1.393
				c2.437-2.437,4.876-7.431,4.876-7.431S294.955,31.972,292.518,34.408z"/>
			<g>
				<circle fill="#87714F" cx="295.973" cy="39.604" r="1.724"/>
				<circle fill="#87714F" cx="289.877" cy="33.508" r="1.724"/>
			</g>
		</g>
		<g>
			<path fill="#87714F" d="M292.518,369.655c-2.437-2.437-2.099-3.242-1.393-3.948c0.705-0.705,1.511-1.043,3.948,1.393
				s4.876,7.431,4.876,7.431S294.955,372.092,292.518,369.655z"/>
			<g>
				<circle fill="#87714F" cx="295.973" cy="364.46" r="1.724"/>
				<circle fill="#87714F" cx="289.877" cy="370.555" r="1.724"/>
			</g>
		</g>
		<g>
			<path fill="#87714F" d="M32.38,369.655c2.437-2.437,2.099-3.242,1.393-3.948c-0.705-0.705-1.511-1.043-3.948,1.393
				s-4.876,7.431-4.876,7.431S29.943,372.092,32.38,369.655z"/>
			<g>
				<circle fill="#87714F" cx="28.926" cy="364.46" r="1.724"/>
				<circle fill="#87714F" cx="35.022" cy="370.555" r="1.724"/>
			</g>
		</g>
	</g>
</g>
</svg>
