<?xml version="1.0" encoding="utf-8"?>
<!-- Generator: Adobe Illustrator 17.1.0, SVG Export Plug-In . SVG Version: 6.00 Build 0)  -->
<!DOCTYPE svg PUBLIC "-//W3C//DTD SVG 1.1//EN" "http://www.w3.org/Graphics/SVG/1.1/DTD/svg11.dtd">
<svg version="1.1" xmlns="http://www.w3.org/2000/svg" xmlns:xlink="http://www.w3.org/1999/xlink" x="0px" y="0px"
	 viewBox="0 0 98.539 78.951" enable-background="new 0 0 98.539 78.951" xml:space="preserve">
<g id="BG">
</g>
<g id="Layer_1">
	<g>
		<path fill="#BC9D6D" d="M76.432,43.221c0.003,0,0.007-0.003,0.009-0.003c3.226-0.968,6.579-2.282,9.795-4.037
			c5.162-3.003,7.802,0.114,5.888,4.832c-1.632,4.465-10.318,12.774-17.887,14.667c-2.9-2.046-8.591-3.446-15.16-3.472
			c-6.569,0.026-12.263,1.426-15.159,3.473c-7.57-1.895-16.256-10.203-17.888-14.669c-1.914-4.718,0.726-7.836,5.888-4.832
			c3.228,1.762,6.578,3.076,9.801,4.05c6.933,2.088,13.29,2.601,16.62,2.605l1.828-0.003C63.494,45.794,69.693,45.245,76.432,43.221
			z"/>
		<g id="XMLID_2_">
			<path fill="#BC9D6D" d="M67.078,22.231c2.699,1.351,7.09,14.047,8.796,19.254c-6.521,1.892-12.473,2.407-15.705,2.446
				l-1.827,0.003c-3.242-0.003-9.344-0.488-16.06-2.44c1.702-5.2,6.097-17.91,8.799-19.263c3.096-1.549,5.752,1.013,7.891,1.268
				H58.56c0.168,0.022,0.342,0.025,0.519,0.009c0.178,0.015,0.353,0.013,0.521-0.009h-0.413
				C61.326,23.245,63.978,20.682,67.078,22.231z M66.022,32.088c0-0.563-0.457-1.02-1.02-1.02c-0.519,0-0.944,0.385-1.011,0.883
				l-3.143-0.457l-1.386-2.805c0.372-0.152,0.635-0.518,0.635-0.945c0-0.563-0.457-1.02-1.02-1.02s-1.02,0.457-1.02,1.02
				c0,0.431,0.267,0.799,0.644,0.949l-1.384,2.802l-3.153,0.458c-0.066-0.499-0.494-0.885-1.011-0.885
				c-0.563,0-1.02,0.457-1.02,1.02c0,0.564,0.457,1.02,1.02,1.02c0.346,0,0.653-0.172,0.837-0.436l2.237,2.181l-0.562,3.277
				c-0.125-0.054-0.262-0.084-0.405-0.084c-0.564,0-1.02,0.457-1.02,1.02c0,0.563,0.457,1.02,1.02,1.02
				c0.563,0,1.02-0.457,1.02-1.02c0-0.211-0.065-0.409-0.177-0.573l2.98-1.568l2.971,1.564c-0.113,0.164-0.179,0.362-0.179,0.576
				c0,0.563,0.457,1.02,1.021,1.02c0.563,0,1.021-0.457,1.021-1.02c0-0.563-0.458-1.02-1.021-1.02c-0.141,0-0.273,0.029-0.397,0.08
				l-0.562-3.273l2.232-2.176c0.183,0.262,0.49,0.432,0.832,0.432C65.565,33.108,66.022,32.651,66.022,32.088z"/>
		</g>
	</g>
</g>
</svg>
